<svg width="157" height="36" viewBox="0 0 157 36" fill="none" xmlns="http://www.w3.org/2000/svg">
<path d="M5.77344 6.58594H10.3047V12.5078C9.70573 12.7057 9.08333 12.8646 8.4375 12.9844C7.79167 13.099 7.0599 13.1562 6.24219 13.1562C5.10677 13.1562 4.14323 12.9323 3.35156 12.4844C2.5599 12.0365 1.95833 11.375 1.54688 10.5C1.13542 9.625 0.929688 8.54948 0.929688 7.27344C0.929688 6.07552 1.15885 5.03906 1.61719 4.16406C2.08073 3.28906 2.75521 2.61198 3.64062 2.13281C4.53125 1.65365 5.61719 1.41406 6.89844 1.41406C7.5026 1.41406 8.09896 1.47917 8.6875 1.60938C9.27604 1.73958 9.8099 1.90885 10.2891 2.11719L9.48438 4.05469C9.13542 3.8776 8.73698 3.72917 8.28906 3.60938C7.84115 3.48958 7.3724 3.42969 6.88281 3.42969C6.17969 3.42969 5.56771 3.59115 5.04688 3.91406C4.53125 4.23698 4.13021 4.6901 3.84375 5.27344C3.5625 5.85156 3.42188 6.53385 3.42188 7.32031C3.42188 8.0651 3.52344 8.72656 3.72656 9.30469C3.92969 9.8776 4.25 10.3281 4.6875 10.6562C5.125 10.9792 5.69531 11.1406 6.39844 11.1406C6.74219 11.1406 7.03125 11.125 7.26562 11.0938C7.50521 11.0573 7.72917 11.0208 7.9375 10.9844V8.60156H5.77344V6.58594ZM16.4453 4.10156C17.2526 4.10156 17.9479 4.25781 18.5312 4.57031C19.1146 4.8776 19.5651 5.32552 19.8828 5.91406C20.2005 6.5026 20.3594 7.22135 20.3594 8.07031V9.22656H14.7266C14.7526 9.89844 14.9531 10.4271 15.3281 10.8125C15.7083 11.1927 16.2344 11.3828 16.9062 11.3828C17.4635 11.3828 17.974 11.3255 18.4375 11.2109C18.901 11.0964 19.3776 10.9245 19.8672 10.6953V12.5391C19.4349 12.7526 18.9818 12.9089 18.5078 13.0078C18.0391 13.1068 17.4688 13.1562 16.7969 13.1562C15.9219 13.1562 15.1458 12.9948 14.4688 12.6719C13.7969 12.349 13.2682 11.8568 12.8828 11.1953C12.5026 10.5339 12.3125 9.70052 12.3125 8.69531C12.3125 7.67448 12.4844 6.82552 12.8281 6.14844C13.1771 5.46615 13.6615 4.95573 14.2812 4.61719C14.901 4.27344 15.6224 4.10156 16.4453 4.10156ZM16.4609 5.79688C15.9974 5.79688 15.612 5.94531 15.3047 6.24219C15.0026 6.53906 14.8281 7.00521 14.7812 7.64062H18.125C18.1198 7.28646 18.0547 6.97135 17.9297 6.69531C17.8099 6.41927 17.6276 6.20052 17.3828 6.03906C17.1432 5.8776 16.8359 5.79688 16.4609 5.79688ZM25.9766 11.2578C26.237 11.2578 26.4896 11.2318 26.7344 11.1797C26.9844 11.1276 27.2318 11.0625 27.4766 10.9844V12.7578C27.2214 12.8724 26.9036 12.9661 26.5234 13.0391C26.1484 13.1172 25.737 13.1562 25.2891 13.1562C24.7682 13.1562 24.2995 13.0729 23.8828 12.9062C23.4714 12.7344 23.1458 12.4401 22.9062 12.0234C22.6719 11.6016 22.5547 11.0156 22.5547 10.2656V6.05469H21.4141V5.04688L22.7266 4.25L23.4141 2.40625H24.9375V4.26562H27.3828V6.05469H24.9375V10.2656C24.9375 10.599 25.0312 10.849 25.2188 11.0156C25.4115 11.1771 25.6641 11.2578 25.9766 11.2578ZM36.9531 5.70312C37.651 5.70312 38.2708 5.83594 38.8125 6.10156C39.3594 6.36719 39.7891 6.75781 40.1016 7.27344C40.4141 7.78906 40.5703 8.42448 40.5703 9.17969C40.5703 10.0026 40.3984 10.7135 40.0547 11.3125C39.7161 11.9062 39.2083 12.362 38.5312 12.6797C37.8594 12.9974 37.0208 13.1562 36.0156 13.1562C35.4167 13.1562 34.8516 13.1042 34.3203 13C33.7943 12.901 33.3333 12.7474 32.9375 12.5391V10.4531C33.3333 10.6615 33.8073 10.8385 34.3594 10.9844C34.9167 11.125 35.4401 11.1953 35.9297 11.1953C36.4089 11.1953 36.8125 11.1328 37.1406 11.0078C37.4688 10.8776 37.7161 10.6797 37.8828 10.4141C38.0547 10.1432 38.1406 9.79948 38.1406 9.38281C38.1406 8.82552 37.9531 8.39844 37.5781 8.10156C37.2031 7.80469 36.6276 7.65625 35.8516 7.65625C35.5547 7.65625 35.2448 7.6849 34.9219 7.74219C34.6042 7.79948 34.3385 7.85677 34.125 7.91406L33.1641 7.39844L33.5938 1.57812H39.7891V3.625H35.7109L35.5 5.86719C35.6771 5.83073 35.8698 5.79427 36.0781 5.75781C36.2865 5.72135 36.5781 5.70312 36.9531 5.70312ZM49.875 7.28906C49.875 8.21094 49.8021 9.03385 49.6562 9.75781C49.5156 10.4818 49.2865 11.0964 48.9688 11.6016C48.6562 12.1068 48.2448 12.4922 47.7344 12.7578C47.224 13.0234 46.6042 13.1562 45.875 13.1562C44.9583 13.1562 44.2057 12.9245 43.6172 12.4609C43.0286 11.9922 42.5938 11.3203 42.3125 10.4453C42.0312 9.5651 41.8906 8.51302 41.8906 7.28906C41.8906 6.05469 42.0182 5 42.2734 4.125C42.5339 3.24479 42.9557 2.57031 43.5391 2.10156C44.1224 1.63281 44.901 1.39844 45.875 1.39844C46.7865 1.39844 47.5365 1.63281 48.125 2.10156C48.7188 2.5651 49.1589 3.23698 49.4453 4.11719C49.7318 4.99219 49.875 6.04948 49.875 7.28906ZM44.2891 7.28906C44.2891 8.15885 44.3359 8.88542 44.4297 9.46875C44.5286 10.0469 44.6927 10.4818 44.9219 10.7734C45.151 11.0651 45.4688 11.2109 45.875 11.2109C46.276 11.2109 46.5911 11.0677 46.8203 10.7812C47.0547 10.4896 47.2214 10.0547 47.3203 9.47656C47.4193 8.89323 47.4688 8.16406 47.4688 7.28906C47.4688 6.41927 47.4193 5.69271 47.3203 5.10938C47.2214 4.52604 47.0547 4.08854 46.8203 3.79688C46.5911 3.5 46.276 3.35156 45.875 3.35156C45.4688 3.35156 45.151 3.5 44.9219 3.79688C44.6927 4.08854 44.5286 4.52604 44.4297 5.10938C44.3359 5.69271 44.2891 6.41927 44.2891 7.28906ZM53.6562 1.41406C54.5521 1.41406 55.2318 1.72656 55.6953 2.35156C56.1589 2.97656 56.3906 3.85417 56.3906 4.98438C56.3906 6.11458 56.1719 6.9974 55.7344 7.63281C55.2969 8.26823 54.6042 8.58594 53.6562 8.58594C52.776 8.58594 52.1068 8.26823 51.6484 7.63281C51.1901 6.9974 50.9609 6.11458 50.9609 4.98438C50.9609 3.85417 51.1745 2.97656 51.6016 2.35156C52.0339 1.72656 52.7188 1.41406 53.6562 1.41406ZM53.6719 3.04688C53.4167 3.04688 53.2292 3.20833 53.1094 3.53125C52.9896 3.85417 52.9297 4.34375 52.9297 5C52.9297 5.65625 52.9896 6.14844 53.1094 6.47656C53.2292 6.80469 53.4167 6.96875 53.6719 6.96875C53.9271 6.96875 54.1146 6.80729 54.2344 6.48438C54.3594 6.15625 54.4219 5.66146 54.4219 5C54.4219 4.34375 54.3594 3.85417 54.2344 3.53125C54.1146 3.20833 53.9271 3.04688 53.6719 3.04688ZM61.7656 1.57812L55.4297 13H53.5547L59.8906 1.57812H61.7656ZM61.6562 5.97656C62.5521 5.97656 63.2318 6.28906 63.6953 6.91406C64.1589 7.53906 64.3906 8.41667 64.3906 9.54688C64.3906 10.6719 64.1719 11.5521 63.7344 12.1875C63.2969 12.8229 62.6042 13.1406 61.6562 13.1406C60.776 13.1406 60.1068 12.8229 59.6484 12.1875C59.1901 11.5521 58.9609 10.6719 58.9609 9.54688C58.9609 8.41667 59.1745 7.53906 59.6016 6.91406C60.0339 6.28906 60.7188 5.97656 61.6562 5.97656ZM61.6719 7.60938C61.4167 7.60938 61.2292 7.77083 61.1094 8.09375C60.9896 8.41667 60.9297 8.90625 60.9297 9.5625C60.9297 10.2188 60.9896 10.7109 61.1094 11.0391C61.2292 11.3672 61.4167 11.5312 61.6719 11.5312C61.9271 11.5312 62.1146 11.3698 62.2344 11.0469C62.3594 10.7188 62.4219 10.224 62.4219 9.5625C62.4219 8.90625 62.3594 8.41667 62.2344 8.09375C62.1146 7.77083 61.9271 7.60938 61.6719 7.60938ZM78.2344 8.61719C78.2344 9.34635 78.1354 9.99219 77.9375 10.5547C77.7448 11.1172 77.4609 11.5938 77.0859 11.9844C76.7161 12.3698 76.2682 12.6615 75.7422 12.8594C75.2214 13.0573 74.6328 13.1562 73.9766 13.1562C73.362 13.1562 72.7969 13.0573 72.2812 12.8594C71.7708 12.6615 71.3255 12.3698 70.9453 11.9844C70.5703 11.5938 70.2786 11.1172 70.0703 10.5547C69.8672 9.99219 69.7656 9.34635 69.7656 8.61719C69.7656 7.64844 69.9375 6.82812 70.2812 6.15625C70.625 5.48438 71.1146 4.97396 71.75 4.625C72.3854 4.27604 73.1432 4.10156 74.0234 4.10156C74.8411 4.10156 75.5651 4.27604 76.1953 4.625C76.8307 4.97396 77.3281 5.48438 77.6875 6.15625C78.0521 6.82812 78.2344 7.64844 78.2344 8.61719ZM72.1953 8.61719C72.1953 9.1901 72.2578 9.67188 72.3828 10.0625C72.5078 10.4531 72.7031 10.7474 72.9688 10.9453C73.2344 11.1432 73.5807 11.2422 74.0078 11.2422C74.4297 11.2422 74.7708 11.1432 75.0312 10.9453C75.2969 10.7474 75.4896 10.4531 75.6094 10.0625C75.7344 9.67188 75.7969 9.1901 75.7969 8.61719C75.7969 8.03906 75.7344 7.5599 75.6094 7.17969C75.4896 6.79427 75.2969 6.50521 75.0312 6.3125C74.7656 6.11979 74.4193 6.02344 73.9922 6.02344C73.362 6.02344 72.9036 6.23958 72.6172 6.67188C72.3359 7.10417 72.1953 7.7526 72.1953 8.61719ZM85.0312 6.05469H82.9688V13H80.5859V6.05469H79.2734V4.90625L80.5859 4.26562V3.625C80.5859 2.88021 80.7109 2.30208 80.9609 1.89062C81.2161 1.47396 81.5729 1.18229 82.0312 1.01562C82.4948 0.84375 83.0417 0.757812 83.6719 0.757812C84.1354 0.757812 84.5573 0.796875 84.9375 0.875C85.3177 0.947917 85.6276 1.03125 85.8672 1.125L85.2578 2.875C85.0755 2.81771 84.8776 2.76562 84.6641 2.71875C84.4505 2.67188 84.2057 2.64844 83.9297 2.64844C83.5964 2.64844 83.3516 2.75 83.1953 2.95312C83.0443 3.15104 82.9688 3.40625 82.9688 3.71875V4.26562H85.0312V6.05469ZM91.2266 6.05469H89.1641V13H86.7812V6.05469H85.4688V4.90625L86.7812 4.26562V3.625C86.7812 2.88021 86.9062 2.30208 87.1562 1.89062C87.4115 1.47396 87.7682 1.18229 88.2266 1.01562C88.6901 0.84375 89.237 0.757812 89.8672 0.757812C90.3307 0.757812 90.7526 0.796875 91.1328 0.875C91.513 0.947917 91.8229 1.03125 92.0625 1.125L91.4531 2.875C91.2708 2.81771 91.0729 2.76562 90.8594 2.71875C90.6458 2.67188 90.401 2.64844 90.125 2.64844C89.7917 2.64844 89.5469 2.75 89.3906 2.95312C89.2396 3.15104 89.1641 3.40625 89.1641 3.71875V4.26562H91.2266V6.05469ZM104.688 8.61719C104.688 9.34635 104.589 9.99219 104.391 10.5547C104.198 11.1172 103.914 11.5938 103.539 11.9844C103.169 12.3698 102.721 12.6615 102.195 12.8594C101.674 13.0573 101.086 13.1562 100.43 13.1562C99.8151 13.1562 99.25 13.0573 98.7344 12.8594C98.224 12.6615 97.7786 12.3698 97.3984 11.9844C97.0234 11.5938 96.7318 11.1172 96.5234 10.5547C96.3203 9.99219 96.2188 9.34635 96.2188 8.61719C96.2188 7.64844 96.3906 6.82812 96.7344 6.15625C97.0781 5.48438 97.5677 4.97396 98.2031 4.625C98.8385 4.27604 99.5964 4.10156 100.477 4.10156C101.294 4.10156 102.018 4.27604 102.648 4.625C103.284 4.97396 103.781 5.48438 104.141 6.15625C104.505 6.82812 104.688 7.64844 104.688 8.61719ZM98.6484 8.61719C98.6484 9.1901 98.7109 9.67188 98.8359 10.0625C98.9609 10.4531 99.1562 10.7474 99.4219 10.9453C99.6875 11.1432 100.034 11.2422 100.461 11.2422C100.883 11.2422 101.224 11.1432 101.484 10.9453C101.75 10.7474 101.943 10.4531 102.062 10.0625C102.188 9.67188 102.25 9.1901 102.25 8.61719C102.25 8.03906 102.188 7.5599 102.062 7.17969C101.943 6.79427 101.75 6.50521 101.484 6.3125C101.219 6.11979 100.872 6.02344 100.445 6.02344C99.8151 6.02344 99.3568 6.23958 99.0703 6.67188C98.7891 7.10417 98.6484 7.7526 98.6484 8.61719ZM111.617 4.10156C112.549 4.10156 113.299 4.35677 113.867 4.86719C114.435 5.3724 114.719 6.1849 114.719 7.30469V13H112.336V7.89844C112.336 7.27344 112.221 6.80208 111.992 6.48438C111.768 6.16667 111.414 6.00781 110.93 6.00781C110.201 6.00781 109.703 6.25521 109.438 6.75C109.172 7.24479 109.039 7.95833 109.039 8.89062V13H106.656V4.26562H108.477L108.797 5.38281H108.93C109.117 5.08073 109.349 4.83594 109.625 4.64844C109.906 4.46094 110.216 4.32292 110.555 4.23438C110.898 4.14583 111.253 4.10156 111.617 4.10156ZM120.078 4.26562H122.688L124.336 9.17969C124.388 9.33594 124.432 9.49479 124.469 9.65625C124.505 9.81771 124.536 9.98438 124.562 10.1562C124.589 10.3281 124.609 10.5078 124.625 10.6953H124.672C124.703 10.4141 124.745 10.151 124.797 9.90625C124.854 9.66146 124.924 9.41927 125.008 9.17969L126.625 4.26562H129.18L125.484 14.1172C125.26 14.7214 124.969 15.224 124.609 15.625C124.25 16.0312 123.836 16.3359 123.367 16.5391C122.904 16.7422 122.393 16.8438 121.836 16.8438C121.565 16.8438 121.331 16.8281 121.133 16.7969C120.935 16.7708 120.766 16.7422 120.625 16.7109V14.8203C120.734 14.8464 120.872 14.8698 121.039 14.8906C121.206 14.9115 121.38 14.9219 121.562 14.9219C121.896 14.9219 122.182 14.8516 122.422 14.7109C122.661 14.5703 122.862 14.3802 123.023 14.1406C123.185 13.9062 123.312 13.6484 123.406 13.3672L123.547 12.9375L120.078 4.26562ZM138.375 8.61719C138.375 9.34635 138.276 9.99219 138.078 10.5547C137.885 11.1172 137.602 11.5938 137.227 11.9844C136.857 12.3698 136.409 12.6615 135.883 12.8594C135.362 13.0573 134.773 13.1562 134.117 13.1562C133.503 13.1562 132.938 13.0573 132.422 12.8594C131.911 12.6615 131.466 12.3698 131.086 11.9844C130.711 11.5938 130.419 11.1172 130.211 10.5547C130.008 9.99219 129.906 9.34635 129.906 8.61719C129.906 7.64844 130.078 6.82812 130.422 6.15625C130.766 5.48438 131.255 4.97396 131.891 4.625C132.526 4.27604 133.284 4.10156 134.164 4.10156C134.982 4.10156 135.706 4.27604 136.336 4.625C136.971 4.97396 137.469 5.48438 137.828 6.15625C138.193 6.82812 138.375 7.64844 138.375 8.61719ZM132.336 8.61719C132.336 9.1901 132.398 9.67188 132.523 10.0625C132.648 10.4531 132.844 10.7474 133.109 10.9453C133.375 11.1432 133.721 11.2422 134.148 11.2422C134.57 11.2422 134.911 11.1432 135.172 10.9453C135.438 10.7474 135.63 10.4531 135.75 10.0625C135.875 9.67188 135.938 9.1901 135.938 8.61719C135.938 8.03906 135.875 7.5599 135.75 7.17969C135.63 6.79427 135.438 6.50521 135.172 6.3125C134.906 6.11979 134.56 6.02344 134.133 6.02344C133.503 6.02344 133.044 6.23958 132.758 6.67188C132.477 7.10417 132.336 7.7526 132.336 8.61719ZM148.359 4.26562V13H146.531L146.211 11.8828H146.086C145.898 12.1797 145.664 12.4219 145.383 12.6094C145.102 12.7969 144.792 12.9349 144.453 13.0234C144.115 13.112 143.763 13.1562 143.398 13.1562C142.773 13.1562 142.229 13.0469 141.766 12.8281C141.302 12.6042 140.94 12.2578 140.68 11.7891C140.424 11.3203 140.297 10.7109 140.297 9.96094V4.26562H142.68V9.36719C142.68 9.99219 142.792 10.4635 143.016 10.7812C143.24 11.099 143.596 11.2578 144.086 11.2578C144.57 11.2578 144.951 11.1484 145.227 10.9297C145.503 10.7057 145.695 10.3802 145.805 9.95312C145.919 9.52083 145.977 8.99479 145.977 8.375V4.26562H148.359ZM155.734 4.10156C155.854 4.10156 155.992 4.10938 156.148 4.125C156.31 4.13542 156.44 4.15104 156.539 4.17188L156.359 6.40625C156.281 6.38021 156.169 6.36198 156.023 6.35156C155.883 6.33594 155.76 6.32812 155.656 6.32812C155.349 6.32812 155.049 6.36719 154.758 6.44531C154.471 6.52344 154.214 6.65104 153.984 6.82812C153.755 7 153.573 7.22917 153.438 7.51562C153.307 7.79688 153.242 8.14323 153.242 8.55469V13H150.859V4.26562H152.664L153.016 5.73438H153.133C153.305 5.4375 153.518 5.16667 153.773 4.92188C154.034 4.67188 154.328 4.47396 154.656 4.32812C154.99 4.17708 155.349 4.10156 155.734 4.10156ZM6.07812 28.0547H4.01562V35H1.63281V28.0547H0.320312V26.9062L1.63281 26.2656V25.625C1.63281 24.8802 1.75781 24.3021 2.00781 23.8906C2.26302 23.474 2.61979 23.1823 3.07812 23.0156C3.54167 22.8438 4.08854 22.7578 4.71875 22.7578C5.18229 22.7578 5.60417 22.7969 5.98438 22.875C6.36458 22.9479 6.67448 23.0312 6.91406 23.125L6.30469 24.875C6.1224 24.8177 5.92448 24.7656 5.71094 24.7188C5.4974 24.6719 5.2526 24.6484 4.97656 24.6484C4.64323 24.6484 4.39844 24.75 4.24219 24.9531C4.09115 25.151 4.01562 25.4062 4.01562 25.7188V26.2656H6.07812V28.0547ZM9.82812 26.2656V35H7.44531V26.2656H9.82812ZM8.64062 22.8438C8.99479 22.8438 9.29948 22.9271 9.55469 23.0938C9.8099 23.2552 9.9375 23.5599 9.9375 24.0078C9.9375 24.4505 9.8099 24.7578 9.55469 24.9297C9.29948 25.0964 8.99479 25.1797 8.64062 25.1797C8.28125 25.1797 7.97396 25.0964 7.71875 24.9297C7.46875 24.7578 7.34375 24.4505 7.34375 24.0078C7.34375 23.5599 7.46875 23.2552 7.71875 23.0938C7.97396 22.9271 8.28125 22.8438 8.64062 22.8438ZM17.2031 26.1016C17.3229 26.1016 17.4609 26.1094 17.6172 26.125C17.7786 26.1354 17.9089 26.151 18.0078 26.1719L17.8281 28.4062C17.75 28.3802 17.638 28.362 17.4922 28.3516C17.3516 28.3359 17.2292 28.3281 17.125 28.3281C16.8177 28.3281 16.5182 28.3672 16.2266 28.4453C15.9401 28.5234 15.6823 28.651 15.4531 28.8281C15.224 29 15.0417 29.2292 14.9062 29.5156C14.776 29.7969 14.7109 30.1432 14.7109 30.5547V35H12.3281V26.2656H14.1328L14.4844 27.7344H14.6016C14.7734 27.4375 14.987 27.1667 15.2422 26.9219C15.5026 26.6719 15.7969 26.474 16.125 26.3281C16.4583 26.1771 16.8177 26.1016 17.2031 26.1016ZM25.6875 32.4062C25.6875 33 25.5469 33.5026 25.2656 33.9141C24.9896 34.3203 24.5755 34.6302 24.0234 34.8438C23.4714 35.0521 22.7839 35.1562 21.9609 35.1562C21.3516 35.1562 20.8281 35.1172 20.3906 35.0391C19.9583 34.9609 19.5208 34.8307 19.0781 34.6484V32.6797C19.5521 32.8932 20.0599 33.0703 20.6016 33.2109C21.1484 33.3464 21.6276 33.4141 22.0391 33.4141C22.5026 33.4141 22.8333 33.3464 23.0312 33.2109C23.2344 33.0703 23.3359 32.888 23.3359 32.6641C23.3359 32.5182 23.2943 32.388 23.2109 32.2734C23.1328 32.1536 22.9609 32.0208 22.6953 31.875C22.4297 31.724 22.013 31.5286 21.4453 31.2891C20.8984 31.0599 20.4479 30.8281 20.0938 30.5938C19.7448 30.3594 19.4844 30.0833 19.3125 29.7656C19.1458 29.4427 19.0625 29.0339 19.0625 28.5391C19.0625 27.7318 19.375 27.125 20 26.7188C20.6302 26.3073 21.4714 26.1016 22.5234 26.1016C23.0651 26.1016 23.5807 26.1562 24.0703 26.2656C24.5651 26.375 25.0729 26.5495 25.5938 26.7891L24.875 28.5078C24.4427 28.3203 24.0339 28.1667 23.6484 28.0469C23.2682 27.9271 22.8802 27.8672 22.4844 27.8672C22.1354 27.8672 21.8724 27.9141 21.6953 28.0078C21.5182 28.1016 21.4297 28.2448 21.4297 28.4375C21.4297 28.5781 21.474 28.7031 21.5625 28.8125C21.6562 28.9219 21.8333 29.0443 22.0938 29.1797C22.3594 29.3099 22.7474 29.4792 23.2578 29.6875C23.7526 29.8906 24.1823 30.1042 24.5469 30.3281C24.9115 30.5469 25.1927 30.8203 25.3906 31.1484C25.5885 31.4714 25.6875 31.8906 25.6875 32.4062ZM31.2266 33.2578C31.487 33.2578 31.7396 33.2318 31.9844 33.1797C32.2344 33.1276 32.4818 33.0625 32.7266 32.9844V34.7578C32.4714 34.8724 32.1536 34.9661 31.7734 35.0391C31.3984 35.1172 30.987 35.1562 30.5391 35.1562C30.0182 35.1562 29.5495 35.0729 29.1328 34.9062C28.7214 34.7344 28.3958 34.4401 28.1562 34.0234C27.9219 33.6016 27.8047 33.0156 27.8047 32.2656V28.0547H26.6641V27.0469L27.9766 26.25L28.6641 24.4062H30.1875V26.2656H32.6328V28.0547H30.1875V32.2656C30.1875 32.599 30.2812 32.849 30.4688 33.0156C30.6615 33.1771 30.9141 33.2578 31.2266 33.2578ZM46.5938 30.6172C46.5938 31.3464 46.4948 31.9922 46.2969 32.5547C46.1042 33.1172 45.8203 33.5938 45.4453 33.9844C45.0755 34.3698 44.6276 34.6615 44.1016 34.8594C43.5807 35.0573 42.9922 35.1562 42.3359 35.1562C41.7214 35.1562 41.1562 35.0573 40.6406 34.8594C40.1302 34.6615 39.6849 34.3698 39.3047 33.9844C38.9297 33.5938 38.638 33.1172 38.4297 32.5547C38.2266 31.9922 38.125 31.3464 38.125 30.6172C38.125 29.6484 38.2969 28.8281 38.6406 28.1562C38.9844 27.4844 39.474 26.974 40.1094 26.625C40.7448 26.276 41.5026 26.1016 42.3828 26.1016C43.2005 26.1016 43.9245 26.276 44.5547 26.625C45.1901 26.974 45.6875 27.4844 46.0469 28.1562C46.4115 28.8281 46.5938 29.6484 46.5938 30.6172ZM40.5547 30.6172C40.5547 31.1901 40.6172 31.6719 40.7422 32.0625C40.8672 32.4531 41.0625 32.7474 41.3281 32.9453C41.5938 33.1432 41.9401 33.2422 42.3672 33.2422C42.7891 33.2422 43.1302 33.1432 43.3906 32.9453C43.6562 32.7474 43.849 32.4531 43.9688 32.0625C44.0938 31.6719 44.1562 31.1901 44.1562 30.6172C44.1562 30.0391 44.0938 29.5599 43.9688 29.1797C43.849 28.7943 43.6562 28.5052 43.3906 28.3125C43.125 28.1198 42.7786 28.0234 42.3516 28.0234C41.7214 28.0234 41.263 28.2396 40.9766 28.6719C40.6953 29.1042 40.5547 29.7526 40.5547 30.6172ZM53.4375 26.1016C53.5573 26.1016 53.6953 26.1094 53.8516 26.125C54.013 26.1354 54.1432 26.151 54.2422 26.1719L54.0625 28.4062C53.9844 28.3802 53.8724 28.362 53.7266 28.3516C53.5859 28.3359 53.4635 28.3281 53.3594 28.3281C53.0521 28.3281 52.7526 28.3672 52.4609 28.4453C52.1745 28.5234 51.9167 28.651 51.6875 28.8281C51.4583 29 51.276 29.2292 51.1406 29.5156C51.0104 29.7969 50.9453 30.1432 50.9453 30.5547V35H48.5625V26.2656H50.3672L50.7188 27.7344H50.8359C51.0078 27.4375 51.2214 27.1667 51.4766 26.9219C51.737 26.6719 52.0312 26.474 52.3594 26.3281C52.6927 26.1771 53.0521 26.1016 53.4375 26.1016ZM58.5938 35.1562C57.6198 35.1562 56.8255 34.776 56.2109 34.0156C55.6016 33.25 55.2969 32.1276 55.2969 30.6484C55.2969 29.1536 55.6068 28.0234 56.2266 27.2578C56.8464 26.487 57.6562 26.1016 58.6562 26.1016C59.0729 26.1016 59.4401 26.1589 59.7578 26.2734C60.0755 26.388 60.349 26.5417 60.5781 26.7344C60.8125 26.9271 61.0104 27.1432 61.1719 27.3828H61.25C61.2188 27.2161 61.1797 26.9714 61.1328 26.6484C61.0911 26.3203 61.0703 25.9844 61.0703 25.6406V22.8438H63.4609V35H61.6328L61.1719 33.8672H61.0703C60.9193 34.1068 60.7292 34.3255 60.5 34.5234C60.276 34.7161 60.0078 34.8698 59.6953 34.9844C59.3828 35.099 59.0156 35.1562 58.5938 35.1562ZM59.4297 33.2578C60.0807 33.2578 60.5391 33.0651 60.8047 32.6797C61.0755 32.2891 61.2188 31.7031 61.2344 30.9219V30.6641C61.2344 29.8151 61.1042 29.1667 60.8438 28.7188C60.5833 28.2656 60.099 28.0391 59.3906 28.0391C58.8646 28.0391 58.4531 28.2656 58.1562 28.7188C57.8594 29.1719 57.7109 29.8255 57.7109 30.6797C57.7109 31.5339 57.8594 32.1771 58.1562 32.6094C58.4583 33.0417 58.8828 33.2578 59.4297 33.2578ZM69.5547 26.1016C70.362 26.1016 71.0573 26.2578 71.6406 26.5703C72.224 26.8776 72.6745 27.3255 72.9922 27.9141C73.3099 28.5026 73.4688 29.2214 73.4688 30.0703V31.2266H67.8359C67.862 31.8984 68.0625 32.4271 68.4375 32.8125C68.8177 33.1927 69.3438 33.3828 70.0156 33.3828C70.5729 33.3828 71.0833 33.3255 71.5469 33.2109C72.0104 33.0964 72.487 32.9245 72.9766 32.6953V34.5391C72.5443 34.7526 72.0911 34.9089 71.6172 35.0078C71.1484 35.1068 70.5781 35.1562 69.9062 35.1562C69.0312 35.1562 68.2552 34.9948 67.5781 34.6719C66.9062 34.349 66.3776 33.8568 65.9922 33.1953C65.612 32.5339 65.4219 31.7005 65.4219 30.6953C65.4219 29.6745 65.5938 28.8255 65.9375 28.1484C66.2865 27.4661 66.7708 26.9557 67.3906 26.6172C68.0104 26.2734 68.7318 26.1016 69.5547 26.1016ZM69.5703 27.7969C69.1068 27.7969 68.7214 27.9453 68.4141 28.2422C68.112 28.5391 67.9375 29.0052 67.8906 29.6406H71.2344C71.2292 29.2865 71.1641 28.9714 71.0391 28.6953C70.9193 28.4193 70.737 28.2005 70.4922 28.0391C70.2526 27.8776 69.9453 27.7969 69.5703 27.7969ZM80.2812 26.1016C80.401 26.1016 80.5391 26.1094 80.6953 26.125C80.8568 26.1354 80.987 26.151 81.0859 26.1719L80.9062 28.4062C80.8281 28.3802 80.7161 28.362 80.5703 28.3516C80.4297 28.3359 80.3073 28.3281 80.2031 28.3281C79.8958 28.3281 79.5964 28.3672 79.3047 28.4453C79.0182 28.5234 78.7604 28.651 78.5312 28.8281C78.3021 29 78.1198 29.2292 77.9844 29.5156C77.8542 29.7969 77.7891 30.1432 77.7891 30.5547V35H75.4062V26.2656H77.2109L77.5625 27.7344H77.6797C77.8516 27.4375 78.0651 27.1667 78.3203 26.9219C78.5807 26.6719 78.875 26.474 79.2031 26.3281C79.5365 26.1771 79.8958 26.1016 80.2812 26.1016ZM82.3359 33.8828C82.3359 33.3932 82.4688 33.0495 82.7344 32.8516C83.0052 32.6536 83.3307 32.5547 83.7109 32.5547C84.0807 32.5547 84.3984 32.6536 84.6641 32.8516C84.9349 33.0495 85.0703 33.3932 85.0703 33.8828C85.0703 34.3516 84.9349 34.6901 84.6641 34.8984C84.3984 35.1068 84.0807 35.2109 83.7109 35.2109C83.3307 35.2109 83.0052 35.1068 82.7344 34.8984C82.4688 34.6901 82.3359 34.3516 82.3359 33.8828Z" fill="white"/>
</svg>
